<?xml version="1.0" encoding="UTF-8"?>
<svg version="1.1" xmlns="http://www.w3.org/2000/svg" width="512" height="512">
<path d="M0 0 C2.64146633 1.99083147 3.3732465 2.36044204 6.8125 2.625 C22.66946881 -2.66065627 35.63571616 -13.16282361 48.18359375 -23.859375 C50.5625 -25.625 50.5625 -25.625 53.6875 -26.125 C56.5625 -25.625 56.5625 -25.625 58.375 -23.875 C63.81485888 -13.56789897 61.20281578 2.67541251 57.953125 13.453125 C54.51266946 23.65125144 49.89962617 33.0866655 41.93359375 40.48046875 C40.34605947 42.27851124 40.34605947 42.27851124 40.5859375 44.546875 C42.00563206 48.65831046 43.88259124 52.51329011 45.75 56.4375 C59.70461761 86.75672488 64.39263744 121.65951434 56.5625 154.375 C56.39621094 155.10154785 56.22992188 155.8280957 56.05859375 156.57666016 C53.27550951 168.47949915 48.91547049 179.40625169 43.5625 190.375 C43.06878906 191.39207031 42.57507813 192.40914062 42.06640625 193.45703125 C24.37630197 227.68462678 -8.58316005 255.51428273 -45.24414062 267.27539062 C-86.1485185 279.36387588 -128.50223486 276.33063378 -166.44433594 256.31640625 C-176.21520191 250.98417954 -184.87309761 244.44994111 -193.4375 237.375 C-194.64019531 236.40433594 -194.64019531 236.40433594 -195.8671875 235.4140625 C-197.43678759 234.12182146 -198.94765111 232.75843111 -200.4375 231.375 C-200.4375 230.715 -200.4375 230.055 -200.4375 229.375 C-201.01113281 229.14554687 -201.58476562 228.91609375 -202.17578125 228.6796875 C-206.98675267 225.90444665 -210.07291371 220.69703287 -213.4375 216.375 C-214.19804687 215.41722656 -214.95859375 214.45945312 -215.7421875 213.47265625 C-229.28050482 196.02274897 -238.63169436 175.90798962 -243.4375 154.375 C-243.60121094 153.64796875 -243.76492187 152.9209375 -243.93359375 152.171875 C-248.41289276 131.29315895 -247.76189549 109.21763586 -243.4375 88.375 C-243.18226563 87.12460938 -242.92703125 85.87421875 -242.6640625 84.5859375 C-239.80115195 72.53019492 -235.36301425 58.96719394 -228.59765625 48.5390625 C-227.21310427 46.40066722 -227.21310427 46.40066722 -227.55859375 43.76953125 C-228.52445065 41.13810777 -229.48737483 39.98343381 -231.5 38.0625 C-243.07883093 25.34008083 -247.68069402 7.58175555 -247.875 -9.25 C-247.8853125 -9.98395996 -247.895625 -10.71791992 -247.90625 -11.47412109 C-247.82317694 -16.50119523 -247.13984623 -20.32556162 -244.4375 -24.625 C-241.125 -25.86328125 -241.125 -25.86328125 -237.4375 -25.625 C-235.0738342 -24.08307739 -233.41317893 -22.75087811 -231.4375 -20.8125 C-230.30498621 -19.7842662 -229.16675314 -18.76230317 -228.0234375 -17.74609375 C-227.4365918 -17.2238623 -226.84974609 -16.70163086 -226.24511719 -16.16357422 C-217.759967 -8.94134076 -202.79593116 2.5652045 -191.34765625 2.3046875 C-187.86870136 1.19328983 -185.76083528 -0.37569597 -182.9375 -2.6875 C-166.44411373 -15.64363195 -146.77760232 -23.95098851 -126.4375 -28.625 C-125.76412598 -28.78871094 -125.09075195 -28.95242187 -124.39697266 -29.12109375 C-82.19247733 -39.08304242 -33.35916662 -27.66057578 0 0 Z " fill="#FE4F4F" transform="translate(349.4375,146.625)"/>
<path d="M0 0 C5.3381305 4.80583829 7.26998563 12.22411039 9 19 C9.66 19 10.32 19 11 19 C11.30292969 19.56847656 11.60585937 20.13695312 11.91796875 20.72265625 C14.03361933 24.62196301 16.17469701 28.36516109 18.8125 31.9375 C21 35 21 35 21 37 C21.66 37 22.32 37 23 37 C24.41373941 38.76642704 25.75530931 40.59083379 27.0625 42.4375 C33.00643693 50.62342699 40.80506479 60.4025324 50 65 C50 65.66 50 66.32 50 67 C50.57580811 67.27400635 51.15161621 67.5480127 51.74487305 67.83032227 C53.98563891 68.99255126 56.00256975 70.28595906 58.08203125 71.71484375 C58.84966797 72.23626953 59.61730469 72.75769531 60.40820312 73.29492188 C62.00126104 74.3832742 63.59243554 75.47438885 65.18164062 76.56835938 C69.67832051 79.61498209 73.93747035 82.0333065 79 84 C80.39735499 84.62159049 81.79340699 85.2461277 83.1875 85.875 C84.79106815 86.58468725 86.39528033 87.29292039 88 88 C88.9075 88.40476562 89.815 88.80953125 90.75 89.2265625 C104.25290508 95.0802155 118.41515686 98.79789173 133.0625 100.125 C133.98224609 100.2084668 134.90199219 100.29193359 135.84960938 100.37792969 C143.92414918 101.06530365 151.89603459 101.3835095 160 101 C160.77746582 100.96422852 161.55493164 100.92845703 162.35595703 100.89160156 C180.82293742 99.90003726 199.25324588 96.02398435 216 88 C218.35293087 86.89320235 220.7071235 85.78908353 223.0625 84.6875 C224.12597656 84.17574219 225.18945312 83.66398437 226.28515625 83.13671875 C229 82 229 82 232 82 C232 81.34 232 80.68 232 80 C233.87013996 78.77970427 235.79850747 77.64795936 237.75 76.5625 C242.13765494 74.11910667 242.13765494 74.11910667 246.265625 71.27734375 C248 70 248 70 250 70 C250 69.34 250 68.68 250 68 C251.32 67.67 252.64 67.34 254 67 C254 66.34 254 65.68 254 65 C255.7578125 63.51953125 255.7578125 63.51953125 258.125 61.8125 C261.28641761 59.44268145 263.93332291 57.11970875 266.4375 54.0625 C267.283125 53.051875 268.12875 52.04125 269 51 C269.66 51 270.32 51 271 51 C271.4021875 50.11441406 271.4021875 50.11441406 271.8125 49.2109375 C273.01072058 46.98003997 274.27008995 45.46302942 276 43.625 C286.60790875 31.63630974 293.8828613 18.26286028 301 4 C301.33 4 301.66 4 302 4 C305.46548186 32.32654739 291.35540846 61.11576277 274.36816406 83.25292969 C248.70841791 116.01901524 213.84131342 136.6686168 172.625 143.375 C131.02278342 147.86378199 89.48452444 137.21338339 56.73681641 110.89550781 C55.15267203 109.60336102 53.57607603 108.30197585 52 107 C51.19820312 106.35289062 50.39640625 105.70578125 49.5703125 105.0390625 C48.00071241 103.74682146 46.48984889 102.38343111 45 101 C45 100.34 45 99.68 45 99 C44.42636719 98.77054687 43.85273438 98.54109375 43.26171875 98.3046875 C38.45074733 95.52944665 35.36458629 90.32203287 32 86 C31.23945313 85.04222656 30.47890625 84.08445312 29.6953125 83.09765625 C16.0635137 65.52725814 7.07703565 45.578759 2 24 C1.75378906 22.97132813 1.50757812 21.94265625 1.25390625 20.8828125 C-0.20784018 13.92691567 -0.20276764 7.08560258 0 0 Z " fill="#E23B3B" transform="translate(104,277)"/>
<path d="M0 0 C0.99 0.66 1.98 1.32 3 2 C3.3984375 4.05859375 3.3984375 4.05859375 3.375 6.4375 C3.38660156 7.61119141 3.38660156 7.61119141 3.3984375 8.80859375 C2.88344944 11.64102809 2.33110695 12.30209111 0 14 C-2.47401391 15.15679149 -4.89849137 16.2015954 -7.4375 17.1875 C-8.10587891 17.46013672 -8.77425781 17.73277344 -9.46289062 18.01367188 C-12.90072044 19.37313084 -15.25115115 20 -19 20 C-18.7834375 20.66644531 -18.566875 21.33289063 -18.34375 22.01953125 C-15.45314868 31.58795691 -14.76126638 40.44573582 -18 50 C-20.35431382 54.30271146 -22.4076059 57.12129332 -27 59 C-31.97838503 59.63217588 -33.92446636 59.64118351 -38.25 57.0625 C-43.27335703 52.25814491 -45.8835239 44.76656028 -46.05078125 37.921875 C-46.06113442 35.94787124 -46.03345335 33.97374743 -46 32 C-46.70125 32.350625 -47.4025 32.70125 -48.125 33.0625 C-51.58229692 34.18987943 -53.52082298 33.98324568 -57 33 C-58.875 31.875 -58.875 31.875 -60 30 C-60.75680519 24.05367352 -60.75680519 24.05367352 -58.5859375 21.03125 C-54.8126924 18.06737167 -50.65209794 16.61779466 -46.1875 14.9375 C-44.43071445 14.2598274 -42.67419889 13.58145443 -40.91796875 12.90234375 C-40.07274658 12.57854736 -39.22752441 12.25475098 -38.35668945 11.92114258 C-35.20519807 10.68934138 -32.10915275 9.33455512 -29 8 C-26.32366924 6.94878871 -23.63237557 5.94006551 -20.9375 4.9375 C-20.25623047 4.68162109 -19.57496094 4.42574219 -18.87304688 4.16210938 C-6.43515382 -0.48567199 -6.43515382 -0.48567199 0 0 Z " fill="#082F5D" transform="translate(345,216)"/>
<path d="M0 0 C6.80138377 -0.44818367 11.67320377 1.00643926 17.9375 3.5625 C18.85337891 3.92384033 19.76925781 4.28518066 20.71289062 4.6574707 C23.4820952 5.75549587 26.24223616 6.87358234 29 8 C30.19713623 8.48774902 30.19713623 8.48774902 31.41845703 8.98535156 C34.30779035 10.16591268 37.19513886 11.35053071 40.07421875 12.5559082 C45.51074231 14.83009102 51.00505028 16.8853996 56.55859375 18.859375 C59 20 59 20 61 23 C61.33333333 29.33333333 61.33333333 29.33333333 60 32 C59.34 32 58.68 32 58 32 C58 32.66 58 33.32 58 34 C56.54119891 33.85892253 55.08296449 33.71197585 53.625 33.5625 C52.81289062 33.48128906 52.00078125 33.40007812 51.1640625 33.31640625 C49 33 49 33 47 32 C47.04640625 32.59425781 47.0928125 33.18851563 47.140625 33.80078125 C47.46884377 41.33809091 46.21411974 48.56739307 41.69140625 54.8046875 C40.375 56.1875 40.375 56.1875 38 58 C37.34 58 36.68 58 36 58 C36 58.66 36 59.32 36 60 C31.5776924 60.30498673 28.85606191 60.36218004 24.75 58.625 C19.67138907 53.77723502 18.04411422 48.5670901 17.6875 41.625 C17.51690179 34.0388576 17.92288658 27.32805614 20 20 C19.113125 19.938125 18.22625 19.87625 17.3125 19.8125 C11.30387643 18.95942381 5.43793972 16.63150649 0 14 C-2.13586678 10.79619983 -2.23132175 9.98060033 -2.125 6.3125 C-2.10695312 5.50425781 -2.08890625 4.69601563 -2.0703125 3.86328125 C-2.04710937 3.24839844 -2.02390625 2.63351563 -2 2 C-1.34 2 -0.68 2 0 2 C0 1.34 0 0.68 0 0 Z " fill="#07305E" transform="translate(166,216)"/>
<path d="M0 0 C1.17884766 -0.00773437 2.35769531 -0.01546875 3.57226562 -0.0234375 C4.69955078 -0.02085937 5.82683594 -0.01828125 6.98828125 -0.015625 C8.01091064 -0.01336914 9.03354004 -0.01111328 10.0871582 -0.00878906 C12.6875 0.25 12.6875 0.25 15.6875 2.25 C17.06853856 2.77027291 18.46670034 3.24631586 19.875 3.6875 C24.20601915 5.09100539 28.47400264 6.51945644 32.6875 8.25 C34.28589645 11.44679291 34.18421024 14.78012416 33.6875 18.25 C31.57337373 20.95608162 30.11717262 21.18600621 26.75 21.6875 C23.26247745 21.56372571 20.44315302 20.45532081 17.1875 19.25 C10.75907343 17.15198854 4.74341242 16.83408583 -2 16.8125 C-2.96164063 16.80283203 -3.92328125 16.79316406 -4.9140625 16.78320312 C-12.09818273 16.86696859 -18.83354075 18.01052038 -25.3125 21.25 C-32.41109155 21.70070423 -32.41109155 21.70070423 -35.3125 20.25 C-36.89745415 17.08009169 -37.02390218 13.70936747 -36.3125 10.25 C-34.06146832 7.18588665 -31.07850317 6.0980858 -27.625 4.6875 C-26.63113281 4.27371094 -25.63726562 3.85992187 -24.61328125 3.43359375 C-16.19867413 0.41628492 -8.9079002 -0.05941901 0 0 Z " fill="#0F2F5C" transform="translate(257.3125,311.75)"/>
<path d="M0 0 C0.99 0.66 1.98 1.32 3 2 C3.3984375 4.05859375 3.3984375 4.05859375 3.375 6.4375 C3.38273437 7.21996094 3.39046875 8.00242188 3.3984375 8.80859375 C2.88347431 11.64089128 2.3332786 12.30520408 0 14 C-2.47371073 15.13132163 -4.90240955 16.15763087 -7.4375 17.125 C-8.10587891 17.38925781 -8.77425781 17.65351563 -9.46289062 17.92578125 C-12.07298777 18.94498668 -14.64010126 19.91136378 -17.36328125 20.58203125 C-19.55633098 21.1420702 -20.5404967 22.3215712 -22 24 C-22.33 23.34 -22.66 22.68 -23 22 C-24.32 22 -25.64 22 -27 22 C-27 21.34 -27 20.68 -27 20 C-25.68 20 -24.36 20 -23 20 C-23 18.35 -23 16.7 -23 15 C-23.66 14.67 -24.32 14.34 -25 14 C-25.8125 11.625 -25.8125 11.625 -26 9 C-23.50700462 5.36236083 -19.21542735 4.27782671 -15.25 2.8125 C-14.5590625 2.53986328 -13.868125 2.26722656 -13.15625 1.98632812 C-8.64770101 0.29562225 -4.88237798 -0.46298412 0 0 Z " fill="#082F5D" transform="translate(345,216)"/>
<path d="M0 0 C8.27042939 -0.7952336 14.70279212 2.35139606 22 6 C22 6.66 22 7.32 22 8 C22.66 8 23.32 8 24 8 C24 8.66 24 9.32 24 10 C24.66 10 25.32 10 26 10 C27 13 27 13 25.8125 15.625 C23.75089786 18.32640971 23.22637545 18.49605985 20 19 C12.94761638 19.06186301 6.17441888 17.44342592 0 14 C-2.13586678 10.79619983 -2.23132175 9.98060033 -2.125 6.3125 C-2.10695312 5.50425781 -2.08890625 4.69601563 -2.0703125 3.86328125 C-2.04710937 3.24839844 -2.02390625 2.63351563 -2 2 C-1.34 2 -0.68 2 0 2 C0 1.34 0 0.68 0 0 Z " fill="#042F5E" transform="translate(166,216)"/>
<path d="M0 0 C8.15891463 16.31782925 7.207716 42.48690538 4 60 C3.34 59.67 2.68 59.34 2 59 C2 44.81 2 30.62 2 16 C1.34 16 0.68 16 0 16 C0 10.72 0 5.44 0 0 Z " fill="#EA605F" transform="translate(404,230)"/>
<path d="M0 0 C6.20970773 -0.33266291 10.28264895 0.54970669 16 3 C16 3.33 16 3.66 16 4 C13.36 4 10.72 4 8 4 C8 4.66 8 5.32 8 6 C6.68 6 5.36 6 4 6 C4 7.32 4 8.64 4 10 C4.66 10 5.32 10 6 10 C6 11.65 6 13.3 6 15 C3.125 14.6875 3.125 14.6875 0 14 C-2.13586678 10.79619983 -2.23132175 9.98060033 -2.125 6.3125 C-2.10695312 5.50425781 -2.08890625 4.69601563 -2.0703125 3.86328125 C-2.04710937 3.24839844 -2.02390625 2.63351563 -2 2 C-1.34 2 -0.68 2 0 2 C0 1.34 0 0.68 0 0 Z " fill="#0E305A" transform="translate(166,216)"/>
<path d="M0 0 C4.37977635 0.48918968 6.22512907 1.79124231 9.1875 5 C11.7956543 7.89851122 11.7956543 7.89851122 15 10 C15 10.66 15 11.32 15 12 C12.74963714 11.69012383 10.49972106 11.37700182 8.25 11.0625 C6.99703125 10.88847656 5.7440625 10.71445313 4.453125 10.53515625 C1.90017407 10.13950662 -0.5186291 9.69553578 -3 9 C-2.5020163 5.26512223 -2.12508244 3.18762365 0 0 Z " fill="#E33A3A" transform="translate(123,192)"/>
<path d="M0 0 C-0.33 1.65 -0.66 3.3 -1 5 C-0.01 5.66 0.98 6.32 2 7 C2.33 6.34 2.66 5.68 3 5 C3.33 6.32 3.66 7.64 4 9 C1.93918639 9.50690584 -0.12373526 10.00524619 -2.1875 10.5 C-3.33605469 10.7784375 -4.48460937 11.056875 -5.66796875 11.34375 C-8.56818829 11.91495385 -11.06096385 12.13283779 -14 12 C-14 11.34 -14 10.68 -14 10 C-13.34 10 -12.68 10 -12 10 C-12 9.34 -12 8.68 -12 8 C-10.3203125 6.30859375 -10.3203125 6.30859375 -8.125 4.4375 C-7.04605469 3.50744141 -7.04605469 3.50744141 -5.9453125 2.55859375 C-3.82856678 0.86264688 -2.73114502 0 0 0 Z " fill="#E53B3C" transform="translate(388,192)"/>
<path d="M0 0 C5.32498673 0.50155186 9.35205395 3.34435727 13.8125 6.0625 C14.60076172 6.53494141 15.38902344 7.00738281 16.20117188 7.49414062 C18.13812608 8.65631315 20.07078295 9.82504417 22 11 C18.5647952 13.29013653 17.014669 13.17842973 13 13 C13 12.34 13 11.68 13 11 C12.34 11 11.68 11 11 11 C11 10.34 11 9.68 11 9 C9.68 9 8.36 9 7 9 C7 8.34 7 7.68 7 7 C5.68 7 4.36 7 3 7 C2.67 6.01 2.34 5.02 2 4 C2.33 3.67 2.66 3.34 3 3 C2.01 2.67 1.02 2.34 0 2 C0 1.34 0 0.68 0 0 Z " fill="#F65759" transform="translate(319,129)"/>
<path d="M0 0 C0.99 0.33 1.98 0.66 3 1 C-1.03130773 14.97024614 -6.27561646 28.08918361 -13 41 C-13.33 41 -13.66 41 -14 41 C-14.25 35.375 -14.25 35.375 -12 32 C-11.34 32 -10.68 32 -10 32 C-10 30.68 -10 29.36 -10 28 C-9.34 28 -8.68 28 -8 28 C-7.855625 27.278125 -7.71125 26.55625 -7.5625 25.8125 C-7.04166667 23.20833333 -6.52083333 20.60416667 -6 18 C-5.34 18 -4.68 18 -4 18 C-3.18537505 13.34500026 -2.56606279 8.69023454 -2 4 C-1.34 4 -0.68 4 0 4 C0 2.68 0 1.36 0 0 Z " fill="#D75355" transform="translate(402,304)"/>
<path d="M0 0 C2.0345041 2.0345041 2.67053275 3.29354423 3.7265625 5.9140625 C4.0359375 6.67460937 4.3453125 7.43515625 4.6640625 8.21875 C4.98117187 9.0128125 5.29828125 9.806875 5.625 10.625 C5.94984375 11.42679688 6.2746875 12.22859375 6.609375 13.0546875 C7.41078053 15.03463057 8.20598362 17.0170821 9 19 C7.68 18.67 6.36 18.34 5 18 C4.67 16.35 4.34 14.7 4 13 C3.01 12.67 2.02 12.34 1 12 C1 13.32 1 14.64 1 16 C0.34 16 -0.32 16 -1 16 C-3 13 -3 13 -3 10 C-2.34 10 -1.68 10 -1 10 C-1.020625 9.278125 -1.04125 8.55625 -1.0625 7.8125 C-1.00179441 5.08074862 -0.60741465 2.65743909 0 0 Z " fill="#F6585A" transform="translate(391,196)"/>
<path d="M0 0 C0.08714316 3.91652632 0.14043985 7.83280311 0.1875 11.75 C0.21263672 12.86117188 0.23777344 13.97234375 0.26367188 15.1171875 C0.27333984 16.18710937 0.28300781 17.25703125 0.29296875 18.359375 C0.3086792 19.34389648 0.32438965 20.32841797 0.34057617 21.34277344 C0 24 0 24 -3 28 C-3 19.09 -3 10.18 -3 1 C-1 0 -1 0 0 0 Z " fill="#F75D5D" transform="translate(106,254)"/>
<path d="M0 0 C0.99 5.94 1.98 11.88 3 18 C2.34 18 1.68 18 1 18 C1 17.34 1 16.68 1 16 C0.34 16 -0.32 16 -1 16 C-1.33 17.32 -1.66 18.64 -2 20 C-2.99 20 -3.98 20 -5 20 C-5 19.34 -5 18.68 -5 18 C-4.34 18 -3.68 18 -3 18 C-3 16.02 -3 14.04 -3 12 C-3.66 12 -4.32 12 -5 12 C-5 11.34 -5 10.68 -5 10 C-4.34 10 -3.68 10 -3 10 C-2.34 7.36 -1.68 4.72 -1 2 C-2.32 1.67 -3.64 1.34 -5 1 C-2 0 -2 0 0 0 Z " fill="#E15459" transform="translate(299,248)"/>
<path d="M0 0 C0.66 0.66 1.32 1.32 2 2 C1.67 2.66 1.34 3.32 1 4 C-0.32 4 -1.64 4 -3 4 C-3 4.66 -3 5.32 -3 6 C-3.61875 6.12375 -4.2375 6.2475 -4.875 6.375 C-7.19120832 6.87197356 -7.19120832 6.87197356 -9 9 C-10.32 8.34 -11.64 7.68 -13 7 C-13 6.34 -13 5.68 -13 5 C-8.66544943 2.31257865 -5.22363541 0.24295979 0 0 Z " fill="#F95255" transform="translate(189,132)"/>
<path d="M0 0 C0 0.66 0 1.32 0 2 C0.66 2.33 1.32 2.66 2 3 C0.46279297 3.09087891 0.46279297 3.09087891 -1.10546875 3.18359375 C-2.46615695 3.26805026 -3.82683343 3.35269567 -5.1875 3.4375 C-5.86103516 3.47681641 -6.53457031 3.51613281 -7.22851562 3.55664062 C-10.16369381 3.74277388 -12.98154307 3.99614746 -15.86328125 4.59765625 C-18 5 -18 5 -20 4 C-21.66619446 3.9603287 -23.33391013 3.95615553 -25 4 C-21.49741264 1.93147447 -18.19295993 1.42179085 -14.1875 0.875 C-13.00542969 0.70742187 -11.82335937 0.53984375 -10.60546875 0.3671875 C-7.04202276 0.00427967 -3.57905598 -0.06415721 0 0 Z " fill="#ED645F" transform="translate(248,115)"/>
<path d="M0 0 C0.66 0 1.32 0 2 0 C2 0.66 2 1.32 2 2 C5.465 1.505 5.465 1.505 9 1 C2.79559118 7.37675351 2.79559118 7.37675351 0 9 C-2.25 8.6875 -2.25 8.6875 -4 8 C-3.34 8 -2.68 8 -2 8 C-2 7.34 -2 6.68 -2 6 C-2.66 6 -3.32 6 -4 6 C-4 5.34 -4 4.68 -4 4 C-3.34 4 -2.68 4 -2 4 C-2 3.34 -2 2.68 -2 2 C-1.34 2 -0.68 2 0 2 C0 1.34 0 0.68 0 0 Z " fill="#DB484A" transform="translate(342,386)"/>
<path d="M0 0 C1 3 1 3 -0.1875 5.625 C-4.57001965 9.32579437 -9.42847291 8.90363711 -15 9 C-15 9.99 -15 10.98 -15 12 C-15.66 12 -16.32 12 -17 12 C-17 11.34 -17 10.68 -17 10 C-18.32 9.67 -19.64 9.34 -21 9 C-20.34 7.35 -19.68 5.7 -19 4 C-18.505 4.33 -18.01 4.66 -17.5 5 C-14.00172802 6.39930879 -10.68993136 6.48416594 -7 6 C-3.41447119 4.36312815 -2.20684945 3.31027417 0 0 Z " fill="#DA525B" transform="translate(325,268)"/>
<path d="M0 0 C0.76763672 0.07927734 1.53527344 0.15855469 2.32617188 0.24023438 C6.71976718 0.77267531 8.20897279 1.08397279 11.4375 4.3125 C6.8175 4.3125 2.1975 4.3125 -2.5625 4.3125 C-2.5625 3.6525 -2.5625 2.9925 -2.5625 2.3125 C-5.8625 1.9825 -9.1625 1.6525 -12.5625 1.3125 C-7.69789176 -1.11980412 -5.20071784 -0.67148509 0 0 Z " fill="#F66065" transform="translate(276.5625,115.6875)"/>
<path d="M0 0 C2.625 0.375 2.625 0.375 5 1 C5.625 3.375 5.625 3.375 6 6 C4 8 4 8 1.4375 8.1875 C-1 8 -1 8 -2 7 C-2.1875 4.5625 -2.1875 4.5625 -2 2 C-1.34 1.34 -0.68 0.68 0 0 Z " fill="#EAF2F4" transform="translate(304,248)"/>
<path d="M0 0 C1 1 1 1 1.125 3.5 C1 6 1 6 0 7 C-2.4375 7.1875 -2.4375 7.1875 -5 7 C-5.66 6.34 -6.32 5.68 -7 5 C-6.75 2.4375 -6.75 2.4375 -6 0 C-3.49749232 -1.25125384 -2.59701335 -0.83774624 0 0 Z " fill="#EBF2F5" transform="translate(209,249)"/>
<path d="M0 0 C2.8125 1.8125 2.8125 1.8125 5 4 C5 4.99 5 5.98 5 7 C4.01 7 3.02 7 2 7 C2 6.34 2 5.68 2 5 C0.68 5 -0.64 5 -2 5 C-2 4.34 -2 3.68 -2 3 C-2.66 3 -3.32 3 -4 3 C-4.33 4.65 -4.66 6.3 -5 8 C-5.66 7.67 -6.32 7.34 -7 7 C-6.814375 6.38125 -6.62875 5.7625 -6.4375 5.125 C-5.76313824 2.95839822 -5.76313824 2.95839822 -7 1 C-4.39120333 -0.30439833 -2.90289827 -0.33754631 0 0 Z " fill="#F65B62" transform="translate(112,121)"/>
<path d="M0 0 C2.64 0 5.28 0 8 0 C8 0.66 8 1.32 8 2 C7.360625 2.268125 6.72125 2.53625 6.0625 2.8125 C3.66868314 3.88667752 3.66868314 3.88667752 3 7 C3.66 7 4.32 7 5 7 C5 7.66 5 8.32 5 9 C5.66 9 6.32 9 7 9 C7 9.66 7 10.32 7 11 C2.25 10.125 2.25 10.125 0 9 C-0.99444068 5.65506316 -1.10348268 3.31044803 0 0 Z " fill="#113563" transform="translate(301,255)"/>
<path d="M0 0 C0.66 0 1.32 0 2 0 C2 0.66 2 1.32 2 2 C2.66 2 3.32 2 4 2 C4 2.66 4 3.32 4 4 C4.66 4 5.32 4 6 4 C6.33 6.31 6.66 8.62 7 11 C0.81795511 8.82793017 0.81795511 8.82793017 -1 6 C-0.6875 2.8125 -0.6875 2.8125 0 0 Z " fill="#DD474A" transform="translate(168,386)"/>
<path d="M0 0 C0.66 0 1.32 0 2 0 C2 0.66 2 1.32 2 2 C3.32 2 4.64 2 6 2 C6 2.66 6 3.32 6 4 C6.66 4 7.32 4 8 4 C8.625 5.8125 8.625 5.8125 9 8 C8.01 9.485 8.01 9.485 7 11 C6.34 10.01 5.68 9.02 5 8 C4.01 7.67 3.02 7.34 2 7 C0.25 4.5625 0.25 4.5625 -1 2 C-0.67 1.34 -0.34 0.68 0 0 Z " fill="#DD4345" transform="translate(132,354)"/>
<path d="M0 0 C1.32 0.33 2.64 0.66 4 1 C2.90051484 5.76443568 2.03190802 9.03536175 -2 12 C-3.32 12 -4.64 12 -6 12 C-6 12.66 -6 13.32 -6 14 C-8.31 14 -10.62 14 -13 14 C-10.62905601 12.41937067 -8.4213606 11.17309564 -5.875 9.9375 C-3.24526174 8.74120952 -3.24526174 8.74120952 -1 7 C-0.63239269 4.67182036 -0.29758419 2.3381615 0 0 Z " fill="#D85058" transform="translate(348,220)"/>
<path d="M0 0 C1.32 0 2.64 0 4 0 C2.9611908 6.1112924 1.84269722 12.07704464 0 18 C-1.76462683 14.91190305 -2 13.76687864 -2 10 C-1.34 10 -0.68 10 0 10 C0 6.7 0 3.4 0 0 Z " fill="#F97271" transform="translate(406,146)"/>
<path d="M0 0 C5.65394631 -0.34615998 9.03006806 0.56574762 14 3 C12.68 3.33 11.36 3.66 10 4 C10 4.66 10 5.32 10 6 C9.34 6 8.68 6 8 6 C8 5.34 8 4.68 8 4 C6.02 4 4.04 4 2 4 C2 3.34 2 2.68 2 2 C1.34 2 0.68 2 0 2 C0 1.34 0 0.68 0 0 Z " fill="#F05056" transform="translate(162,230)"/>
<path d="M0 0 C0.66 0 1.32 0 2 0 C2 0.66 2 1.32 2 2 C2.66 2 3.32 2 4 2 C4 1.34 4 0.68 4 0 C5.32 0.66 6.64 1.32 8 2 C7.34 2 6.68 2 6 2 C6 2.66 6 3.32 6 4 C8.64 4 11.28 4 14 4 C14 4.66 14 5.32 14 6 C8.03596489 7.83508773 4.24817912 5.71739052 -1 3 C-0.67 2.01 -0.34 1.02 0 0 Z " fill="#DE4C4B" transform="translate(192,404)"/>
<path d="M0 0 C0.99 0.66 1.98 1.32 3 2 C2.67 2.99 2.34 3.98 2 5 C0.37399059 4.9129995 -1.25089678 4.8048219 -2.875 4.6875 C-3.77992188 4.62949219 -4.68484375 4.57148438 -5.6171875 4.51171875 C-8 4 -8 4 -10 1 C-6.47005387 -0.17664871 -3.70544587 -0.19850603 0 0 Z " fill="#16305A" transform="translate(345,216)"/>
<path d="M0 0 C-1.98 0.99 -1.98 0.99 -4 2 C-4 2.66 -4 3.32 -4 4 C-4.62648437 3.97679688 -5.25296875 3.95359375 -5.8984375 3.9296875 C-6.71570313 3.91164063 -7.53296875 3.89359375 -8.375 3.875 C-9.59316406 3.84019531 -9.59316406 3.84019531 -10.8359375 3.8046875 C-13.21342243 3.78629949 -13.21342243 3.78629949 -15 6 C-18.625 6.125 -18.625 6.125 -22 6 C-18.67091833 3.78061222 -15.31854136 2.57651775 -11.5625 1.3125 C-10.89412109 1.07466797 -10.22574219 0.83683594 -9.53710938 0.59179688 C-3.4625144 -1.46116337 -3.4625144 -1.46116337 0 0 Z " fill="#F96B6D" transform="translate(222,120)"/>
<path d="M0 0 C3.34905453 3.34905453 3.89470285 5.49378854 5 10 C4.01 10.33 3.02 10.66 2 11 C2 11.66 2 12.32 2 13 C1.34 13 0.68 13 0 13 C0 8.71 0 4.42 0 0 Z " fill="#DC4343" transform="translate(104,277)"/>
<path d="M0 0 C0.66 0 1.32 0 2 0 C2.66 0.66 3.32 1.32 4 2 C4 1.34 4 0.68 4 0 C6.46800047 1.15173355 8.04783565 2.04783565 10 4 C8.68 4 7.36 4 6 4 C6 4.66 6 5.32 6 6 C6.99 6.33 7.98 6.66 9 7 C7.35 7.33 5.7 7.66 4 8 C4 7.34 4 6.68 4 6 C3.34 6 2.68 6 2 6 C2 5.34 2 4.68 2 4 C1.34 4 0.68 4 0 4 C0 2.68 0 1.36 0 0 Z " fill="#F15452" transform="translate(184,272)"/>
<path d="M0 0 C-3.94322156 2.43801333 -8.25513529 2.89449131 -12.75 3.625 C-13.54277344 3.7590625 -14.33554687 3.893125 -15.15234375 4.03125 C-17.10060858 4.35987298 -19.05018439 4.68070705 -21 5 C-21.33 4.34 -21.66 3.68 -22 3 C-17.98860532 1.77914075 -13.97085604 0.71383359 -9.875 -0.1875 C-9.06804687 -0.36667969 -8.26109375 -0.54585938 -7.4296875 -0.73046875 C-4.72841584 -1.0301275 -2.62333432 -0.65816751 0 0 Z " fill="#D95A5D" transform="translate(297,415)"/>
<path d="M0 0 C2.01003681 4.02007362 2.62082163 7.37769908 3.125 11.75 C3.21136719 12.44738281 3.29773438 13.14476562 3.38671875 13.86328125 C3.59771846 15.57472332 3.79975501 17.28726629 4 19 C3.34 18.67 2.68 18.34 2 18 C2 17.34 2 16.68 2 16 C1.34 16 0.68 16 0 16 C0 10.72 0 5.44 0 0 Z " fill="#F16A6A" transform="translate(404,230)"/>
<path d="M0 0 C1.2065625 0.0309375 1.2065625 0.0309375 2.4375 0.0625 C2.4375 1.3825 2.4375 2.7025 2.4375 4.0625 C-1.3125 5.1875 -1.3125 5.1875 -3.5625 4.0625 C-3.8925 4.7225 -4.2225 5.3825 -4.5625 6.0625 C-6.5425 5.4025 -8.5225 4.7425 -10.5625 4.0625 C-10.5625 3.7325 -10.5625 3.4025 -10.5625 3.0625 C-9.428125 2.753125 -8.29375 2.44375 -7.125 2.125 C0 0 0 0 0 0 Z " fill="#DF4447" transform="translate(213.5625,407.9375)"/>
<path d="M0 0 C0.33 0 0.66 0 1 0 C1.22226864 1.76913824 1.42733873 3.54044371 1.625 5.3125 C1.74101562 6.29863281 1.85703125 7.28476562 1.9765625 8.30078125 C2 11 2 11 0 14 C-0.99 14 -1.98 14 -3 14 C-3 13.34 -3 12.68 -3 12 C-5.64 12 -8.28 12 -11 12 C-11 11.67 -11 11.34 -11 11 C-10.36191406 10.86722656 -9.72382813 10.73445313 -9.06640625 10.59765625 C-8.24011719 10.42105469 -7.41382813 10.24445313 -6.5625 10.0625 C-5.73878906 9.88847656 -4.91507812 9.71445312 -4.06640625 9.53515625 C-2.02338796 9.19247006 -2.02338796 9.19247006 -1 8 C-0.76924918 6.65252916 -0.58846937 5.29622435 -0.4375 3.9375 C-0.293125 2.638125 -0.14875 1.33875 0 0 Z " fill="#CE5661" transform="translate(291,322)"/>
<path d="M0 0 C2.8125 -0.25 2.8125 -0.25 6 0 C9.15936057 2.83253016 9.53374641 5.89696842 10 10 C9.34 9.67 8.68 9.34 8 9 C8 8.34 8 7.68 8 7 C6.68 6.67 5.36 6.34 4 6 C4 5.01 4 4.02 4 3 C2.68 2.67 1.36 2.34 0 2 C0 1.34 0 0.68 0 0 Z " fill="#F6666D" transform="translate(400,121)"/>
<path d="M0 0 C3.63 2.31 7.26 4.62 11 7 C7.62385079 9.25076614 5.93268335 9 2 9 C1.34 6.03 0.68 3.06 0 0 Z " fill="#F56160" transform="translate(126,133)"/>
<path d="M0 0 C0.99 0 1.98 0 3 0 C1.42586583 4.09274885 -1.54102377 7.35956013 -5 10 C-5.99 10 -6.98 10 -8 10 C-8 9.34 -8 8.68 -8 8 C-7.34 8 -6.68 8 -6 8 C-6 7.34 -6 6.68 -6 6 C-5.34 6 -4.68 6 -4 6 C-4 5.34 -4 4.68 -4 4 C-3.34 4 -2.68 4 -2 4 C-2 3.34 -2 2.68 -2 2 C-1.34 2 -0.68 2 0 2 C0 1.34 0 0.68 0 0 Z " fill="#DE777A" transform="translate(366,370)"/>
<path d="M0 0 C0.99 0.33 1.98 0.66 3 1 C2.67 1.66 2.34 2.32 2 3 C1.93049459 4.54023996 1.91547643 6.08334988 1.9375 7.625 C1.94652344 8.44226563 1.95554687 9.25953125 1.96484375 10.1015625 C1.97644531 10.72804687 1.98804688 11.35453125 2 12 C1.34 12 0.68 12 0 12 C0 13.32 0 14.64 0 16 C-0.66 16 -1.32 16 -2 16 C-2.04241723 13.66705225 -2.04092937 11.33297433 -2 9 C-1.67 8.67 -1.34 8.34 -1 8 C-0.76924918 6.65252916 -0.58846937 5.29622435 -0.4375 3.9375 C-0.293125 2.638125 -0.14875 1.33875 0 0 Z " fill="#D7535E" transform="translate(284,236)"/>
<path d="M0 0 C1.98 0.66 3.96 1.32 6 2 C6 3.98 6 5.96 6 8 C6.66 8 7.32 8 8 8 C8 8.66 8 9.32 8 10 C4.20401451 8.50871999 2.28279601 6.34266559 0 3 C0 2.01 0 1.02 0 0 Z " fill="#1D3054" transform="translate(302,264)"/>
<path d="M0 0 C1.98 0 3.96 0 6 0 C6 0.66 6 1.32 6 2 C6.66 2 7.32 2 8 2 C8 2.66 8 3.32 8 4 C8.66 4 9.32 4 10 4 C10 4.66 10 5.32 10 6 C9.01 5.67 8.02 5.34 7 5 C7 4.34 7 3.68 7 3 C5.35 3 3.7 3 2 3 C1.34 4.65 0.68 6.3 0 8 C-2 4.25 -2 4.25 -2 2 C-1.34 2 -0.68 2 0 2 C0 1.34 0 0.68 0 0 Z " fill="#194165" transform="translate(302,246)"/>
<path d="M0 0 C3 0 3 0 4.5 1.1875 C6.26781717 3.32361241 7.57457051 5.62428419 9 8 C9.556875 8.556875 10.11375 9.11375 10.6875 9.6875 C11.120625 10.120625 11.55375 10.55375 12 11 C12 11.66 12 12.32 12 13 C11.01 13 10.02 13 9 13 C7.93360356 11.37501495 6.95289657 9.69403834 6 8 C4.05004864 5.29506747 2.0288874 2.64608939 0 0 Z " fill="#EE6669" transform="translate(114,179)"/>
<path d="M0 0 C1.32 0.33 2.64 0.66 4 1 C5.26264601 5.29299643 4.62950412 7.87831311 3 12 C2.67 12 2.34 12 2 12 C1.34 8.04 0.68 4.08 0 0 Z " fill="#DE5050" transform="translate(105,294)"/>
<path d="M0 0 C4.84659077 0.59104765 8.60748167 1.97944157 13 4 C12.01 4.66 11.02 5.32 10 6 C10 5.34 10 4.68 10 4 C8.02 4.33 6.04 4.66 4 5 C4 4.34 4 3.68 4 3 C2.68 2.67 1.36 2.34 0 2 C0 1.34 0 0.68 0 0 Z " fill="#F4646B" transform="translate(304,123)"/>
<path d="M0 0 C1.65 0 3.3 0 5 0 C-4.0625 7.50892857 -4.0625 7.50892857 -10 7 C-6.8745041 4.35534962 -3.91211733 3.15585285 0 2 C0 1.34 0 0.68 0 0 Z " fill="#D5575B" transform="translate(334,396)"/>
<path d="M0 0 C1.32 0.33 2.64 0.66 4 1 C2.68 3.64 1.36 6.28 0 9 C-1.32 8.67 -2.64 8.34 -4 8 C-4 7.34 -4 6.68 -4 6 C-3.34 6 -2.68 6 -2 6 C-2 5.34 -2 4.68 -2 4 C-1.34 4 -0.68 4 0 4 C0 2.68 0 1.36 0 0 Z " fill="#F16D6D" transform="translate(400,168)"/>
<path d="M0 0 C0.66 0 1.32 0 2 0 C2.33 0.66 2.66 1.32 3 2 C4.32303717 2.3721042 5.65737935 2.70630173 7 3 C7.33 3.33 7.66 3.66 8 4 C9.34747084 4.23075082 10.70377565 4.41153063 12.0625 4.5625 C13.361875 4.706875 14.66125 4.85125 16 5 C16 5.33 16 5.66 16 6 C12.7 6 9.4 6 6 6 C6 5.34 6 4.68 6 4 C4.02 4.99 4.02 4.99 2 6 C1.34 4.02 0.68 2.04 0 0 Z " fill="#DB5560" transform="translate(216,328)"/>
<path d="M0 0 C2 1 2 1 2.8515625 3.50390625 C3.10679687 4.51324219 3.36203125 5.52257812 3.625 6.5625 C3.88539063 7.57441406 4.14578125 8.58632812 4.4140625 9.62890625 C4.60742188 10.41136719 4.80078125 11.19382813 5 12 C4.01 12.495 4.01 12.495 3 13 C2.34 12.67 1.68 12.34 1 12 C0.5859375 9.27734375 0.5859375 9.27734375 0.375 5.9375 C0.30023438 4.83277344 0.22546875 3.72804687 0.1484375 2.58984375 C0.09945313 1.73519531 0.05046875 0.88054687 0 0 Z " fill="#F16466" transform="translate(399,216)"/>
<path d="M0 0 C2.92879371 0.62759865 5.36095629 1.58622659 8 3 C6.71073008 3.36279456 5.41846728 3.71496698 4.125 4.0625 C3.04605469 4.35833984 3.04605469 4.35833984 1.9453125 4.66015625 C0 5 0 5 -2 4 C-2 3.34 -2 2.68 -2 2 C-1.34 2 -0.68 2 0 2 C0 1.34 0 0.68 0 0 Z " fill="#F75158" transform="translate(228,312)"/>
<path d="M0 0 C3.63 0 7.26 0 11 0 C10.34 1.98 9.68 3.96 9 6 C8.34 6 7.68 6 7 6 C7 4.68 7 3.36 7 2 C4.69 1.67 2.38 1.34 0 1 C0 0.67 0 0.34 0 0 Z " fill="#192E59" transform="translate(179,234)"/>
<path d="M0 0 C0.33 0 0.66 0 1 0 C1.36256858 1.4562672 1.71479793 2.91511185 2.0625 4.375 C2.35833984 5.59316406 2.35833984 5.59316406 2.66015625 6.8359375 C3 9 3 9 2 11 C0.68 10.34 -0.64 9.68 -2 9 C-1.34 8.67 -0.68 8.34 0 8 C0 6.68 0 5.36 0 4 C-0.66 4 -1.32 4 -2 4 C-2 3.34 -2 2.68 -2 2 C-1.34 2 -0.68 2 0 2 C0 1.34 0 0.68 0 0 Z " fill="#DA4C4E" transform="translate(388,188)"/>
<path d="M0 0 C0.6875 1.6875 0.6875 1.6875 1 4 C-0.4375 6.75 -0.4375 6.75 -2 9 C-3.32 8.67 -4.64 8.34 -6 8 C-6 7.34 -6 6.68 -6 6 C-5.34 6 -4.68 6 -4 6 C-4 5.34 -4 4.68 -4 4 C-3.34 4 -2.68 4 -2 4 C-2 3.34 -2 2.68 -2 2 C-1.34 2 -0.68 2 0 2 C0 1.34 0 0.68 0 0 Z " fill="#D34E4D" transform="translate(386,344)"/>
<path d="M0 0 C2.97 0.495 2.97 0.495 6 1 C6 1.99 6 2.98 6 4 C5.34 4 4.68 4 4 4 C4 4.66 4 5.32 4 6 C3.34 6 2.68 6 2 6 C2 5.34 2 4.68 2 4 C1.34 4 0.68 4 0 4 C0 2.68 0 1.36 0 0 Z " fill="#ED524D" transform="translate(284,248)"/>
<path d="M0 0 C1.32 0 2.64 0 4 0 C4 1.32 4 2.64 4 4 C3.34 4 2.68 4 2 4 C2 4.66 2 5.32 2 6 C1.34 6 0.68 6 0 6 C0 5.34 0 4.68 0 4 C-0.66 4 -1.32 4 -2 4 C-2 3.34 -2 2.68 -2 2 C-1.34 2 -0.68 2 0 2 C0 1.34 0 0.68 0 0 Z " fill="#F55249" transform="translate(224,248)"/>
<path d="M0 0 C0.33 1.65 0.66 3.3 1 5 C-1.31 5.33 -3.62 5.66 -6 6 C-6 5.01 -6 4.02 -6 3 C-2.66666667 0 -2.66666667 0 0 0 Z " fill="#F45859" transform="translate(169,143)"/>
<path d="M0 0 C-5.3986962 3.5991308 -10.6000073 4.26122419 -17 4 C-11.88643979 1.01708988 -5.89517358 -0.36844835 0 0 Z " fill="#EC464A" transform="translate(233,118)"/>
<path d="M0 0 C-0.99 0.33 -1.98 0.66 -3 1 C-3.33 1.99 -3.66 2.98 -4 4 C-5.3303125 3.7525 -5.3303125 3.7525 -6.6875 3.5 C-9.53596892 3.07004243 -12.13004802 2.91558965 -15 3 C-10.25420243 0.26203987 -5.40112241 -0.15885654 0 0 Z " fill="#FB7176" transform="translate(238,116)"/>
<path d="M0 0 C2.4375 0.75 2.4375 0.75 5 2 C5.625 4.0625 5.625 4.0625 6 6 C6.99 6.33 7.98 6.66 9 7 C7.68 7.33 6.36 7.66 5 8 C5 7.34 5 6.68 5 6 C4.360625 5.7525 3.72125 5.505 3.0625 5.25 C1 4 1 4 0.25 1.875 C0.1675 1.25625 0.085 0.6375 0 0 Z " fill="#DA5659" transform="translate(144,370)"/>
<path d="M0 0 C3.3 0.99 6.6 1.98 10 3 C8.68 3.33 7.36 3.66 6 4 C6 4.66 6 5.32 6 6 C5.34 6 4.68 6 4 6 C4 5.34 4 4.68 4 4 C3.34 4 2.68 4 2 4 C2 3.34 2 2.68 2 2 C1.34 2 0.68 2 0 2 C0 1.34 0 0.68 0 0 Z " fill="#1E2D51" transform="translate(188,222)"/>
<path d="M0 0 C2.97 0.495 2.97 0.495 6 1 C4.71937515 2.7074998 3.38232443 4.37373596 2 6 C1.34 6 0.68 6 0 6 C0 4.02 0 2.04 0 0 Z " fill="#F55F64" transform="translate(392,178)"/>
<path d="M0 0 C-4.96993194 2.43425238 -8.34605369 3.34615998 -14 3 C-4.91666667 -1.89102564 -4.91666667 -1.89102564 0 0 Z " fill="#DA6462" transform="translate(314,410)"/>
<path d="M0 0 C0 0.66 0 1.32 0 2 C1.32 2 2.64 2 4 2 C4 2.66 4 3.32 4 4 C-2.0546875 4.1953125 -2.0546875 4.1953125 -4 4 C-4.66 3.34 -5.32 2.68 -6 2 C-3 0 -3 0 0 0 Z " fill="#403556" transform="translate(198,272)"/>
<path d="M0 0 C0.66 0.33 1.32 0.66 2 1 C1.04882866 2.1725131 0.08882991 3.33787015 -0.875 4.5 C-1.40867188 5.1496875 -1.94234375 5.799375 -2.4921875 6.46875 C-2.98976562 6.9740625 -3.48734375 7.479375 -4 8 C-4.66 8 -5.32 8 -6 8 C-6 7.34 -6 6.68 -6 6 C-5.34 6 -4.68 6 -4 6 C-4 4.68 -4 3.36 -4 2 C-2.68 2 -1.36 2 0 2 C0 1.34 0 0.68 0 0 Z " fill="#262A4A" transform="translate(208,266)"/>
<path d="M0 0 C1.32 0 2.64 0 4 0 C4.33 2.97 4.66 5.94 5 9 C4.01 8.67 3.02 8.34 2 8 C2 6.02 2 4.04 2 2 C1.34 2 0.68 2 0 2 C0 1.34 0 0.68 0 0 Z " fill="#DD4D55" transform="translate(160,220)"/>
<path d="M0 0 C0.99 0 1.98 0 3 0 C3.125 5.75 3.125 5.75 2 8 C1.34 8 0.68 8 0 8 C0 5.36 0 2.72 0 0 Z " fill="#ED5453" transform="translate(402,160)"/>
<path d="M0 0 C0.99 0 1.98 0 3 0 C3 2.64 3 5.28 3 8 C2.01 7.67 1.02 7.34 0 7 C0 4.69 0 2.38 0 0 Z " fill="#D63E40" transform="translate(113,316)"/>
<path d="M0 0 C0.33 0.66 0.66 1.32 1 2 C1.66 2 2.32 2 3 2 C3 2.99 3 3.98 3 5 C0.36 4.34 -2.28 3.68 -5 3 C-3 1 -3 1 0 0 Z " fill="#D5505D" transform="translate(189,218)"/>
<path d="M0 0 C1.65 0 3.3 0 5 0 C5.33 1.98 5.66 3.96 6 6 C4.125 5.8125 4.125 5.8125 2 5 C0.75 2.4375 0.75 2.4375 0 0 Z " fill="#F26969" transform="translate(110,172)"/>
<path d="M0 0 C0.33 0 0.66 0 1 0 C1.05422947 1.4370809 1.09289723 2.87475462 1.125 4.3125 C1.14820313 5.11300781 1.17140625 5.91351563 1.1953125 6.73828125 C1 9 1 9 -1 12 C-1.33 9.36 -1.66 6.72 -2 4 C-1.34 4 -0.68 4 0 4 C0 2.68 0 1.36 0 0 Z " fill="#EE6669" transform="translate(406,152)"/>
<path d="M0 0 C1.43739513 -0.02712066 2.87493863 -0.04645067 4.3125 -0.0625 C5.51326172 -0.07990234 5.51326172 -0.07990234 6.73828125 -0.09765625 C9 0 9 0 12 1 C12 1.66 12 2.32 12 3 C10.02 3 8.04 3 6 3 C6 2.34 6 1.68 6 1 C4.02 1 2.04 1 0 1 C0 0.67 0 0.34 0 0 Z " fill="#EC5859" transform="translate(292,121)"/>
<path d="M0 0 C0.99 0.33 1.98 0.66 3 1 C-0.465 3.97 -0.465 3.97 -4 7 C-4.66 6.67 -5.32 6.34 -6 6 C-6 5.34 -6 4.68 -6 4 C-4.68 4 -3.36 4 -2 4 C-2 3.34 -2 2.68 -2 2 C-1.34 2 -0.68 2 0 2 C0 1.34 0 0.68 0 0 Z " fill="#D85759" transform="translate(356,380)"/>
<path d="M0 0 C1.32 0 2.64 0 4 0 C3.67 0.99 3.34 1.98 3 3 C-0.69541586 3.95024979 -3.30458414 3.95024979 -7 3 C-7 2.67 -7 2.34 -7 2 C-3.535 1.505 -3.535 1.505 0 1 C0 0.67 0 0.34 0 0 Z " fill="#E2545D" transform="translate(280,312)"/>
<path d="M0 0 C0.66 0 1.32 0 2 0 C2 1.65 2 3.3 2 5 C-0.97 4.505 -0.97 4.505 -4 4 C-4 3.34 -4 2.68 -4 2 C-2.68 2 -1.36 2 0 2 C0 1.34 0 0.68 0 0 Z " fill="#212C56" transform="translate(170,226)"/>
<path d="M0 0 C3.0916909 2.52956528 3.90931332 5.22454612 5 9 C3.68 8.67 2.36 8.34 1 8 C0.67 5.36 0.34 2.72 0 0 Z " fill="#F36D71" transform="translate(395,206)"/>
<path d="M0 0 C1.32 0 2.64 0 4 0 C4 0.99 4 1.98 4 3 C5.32 3.33 6.64 3.66 8 4 C5.69 4 3.38 4 1 4 C1 3.34 1 2.68 1 2 C0.34 1.67 -0.32 1.34 -1 1 C-0.67 0.67 -0.34 0.34 0 0 Z " fill="#F04E54" transform="translate(315,128)"/>
<path d="M0 0 C2.97 0.33 5.94 0.66 9 1 C6 3 6 3 2.8125 2.625 C1.884375 2.41875 0.95625 2.2125 0 2 C0 1.34 0 0.68 0 0 Z " fill="#E13E4A" transform="translate(294,412)"/>
<path d="M0 0 C0.99 0.33 1.98 0.66 3 1 C2.1875 3.4375 2.1875 3.4375 1 6 C0.01 6.33 -0.98 6.66 -2 7 C-2 6.01 -2 5.02 -2 4 C-1.34 4 -0.68 4 0 4 C0 2.68 0 1.36 0 0 Z " fill="#DC585F" transform="translate(378,354)"/>
<path d="M0 0 C0.99 0.33 1.98 0.66 3 1 C2.34 3.64 1.68 6.28 1 9 C0.34 9 -0.32 9 -1 9 C-0.67 6.03 -0.34 3.06 0 0 Z " fill="#DD686D" transform="translate(402,304)"/>
<path d="M0 0 C0 0.66 0 1.32 0 2 C-1.32 2 -2.64 2 -4 2 C-4 2.66 -4 3.32 -4 4 C-5.32 4 -6.64 4 -8 4 C-8 3.34 -8 2.68 -8 2 C-4.91190305 0.23537317 -3.76687864 0 0 0 Z " fill="#032D67" transform="translate(318,226)"/>
<path d="M0 0 C2.64 0 5.28 0 8 0 C7.67 0.99 7.34 1.98 7 3 C4.69 2.67 2.38 2.34 0 2 C0 1.34 0 0.68 0 0 Z " fill="#EC4D58" transform="translate(340,214)"/>
<path d="M0 0 C-0.33 1.65 -0.66 3.3 -1 5 C-2.98 5 -4.96 5 -7 5 C-2.25 0 -2.25 0 0 0 Z " fill="#F55E62" transform="translate(387,133)"/>
<path d="M0 0 C0.66 0 1.32 0 2 0 C1.67 2.64 1.34 5.28 1 8 C0.34 8 -0.32 8 -1 8 C-0.67 5.36 -0.34 2.72 0 0 Z " fill="#DA5A5E" transform="translate(405,293)"/>
<path d="M0 0 C0.66 0.33 1.32 0.66 2 1 C1.01 2.485 1.01 2.485 0 4 C-3.125 4.1875 -3.125 4.1875 -6 4 C-3.94766315 1.7522025 -2.99332739 0.9977758 0 0 Z " fill="#222B4F" transform="translate(292,234)"/>
<path d="M0 0 C2.4375 0.375 2.4375 0.375 5 1 C5.33 1.66 5.66 2.32 6 3 C4.02 3.33 2.04 3.66 0 4 C0 2.68 0 1.36 0 0 Z " fill="#E55353" transform="translate(296,228)"/>
<path d="M0 0 C1.32 0.99 2.64 1.98 4 3 C-0.455 3.495 -0.455 3.495 -5 4 C-5 3.34 -5 2.68 -5 2 C-3.35 2 -1.7 2 0 2 C0 1.34 0 0.68 0 0 Z " fill="#FC6262" transform="translate(337,138)"/>
<path d="M0 0 C0.66 0.33 1.32 0.66 2 1 C2 2.65 2 4.3 2 6 C0.35 5.67 -1.3 5.34 -3 5 C-3 4.01 -3 3.02 -3 2 C-2.01 1.34 -1.02 0.68 0 0 Z " fill="#F56465" transform="translate(179,135)"/>
</svg>
